<svg width="72" height="73" viewBox="0 0 72 73" fill="none" xmlns="http://www.w3.org/2000/svg">
<path d="M63.576 28.004L62.28 24.62L68.976 22.1C65.664 14.468 59.76 8.348 52.344 4.604L49.464 11.012L46.152 9.5L49.032 3.02C45 1.436 40.608 0.5 36 0.5C32.184 0.5 28.512 1.292 25.056 2.3L27.504 8.924L24.12 10.22L21.6 3.524C13.968 6.836 7.848 12.74 4.104 20.156L10.512 23.036L9 26.348L2.52 23.468C0.936 27.5 0 31.892 0 36.5C0 40.316 0.792 43.988 1.8 47.444L8.424 44.996L9.72 48.38L3.024 50.9C6.336 58.532 12.24 64.652 19.656 68.396L22.536 61.988L25.848 63.5L22.968 69.98C27 71.564 31.392 72.5 36 72.5C39.816 72.5 43.488 71.708 46.944 70.7L44.496 64.076L47.88 62.78L50.4 69.476C58.032 66.164 64.152 60.26 67.896 52.844L61.488 49.964L63 46.652L69.48 49.532C71.064 45.5 72 41.108 72 36.5C72 32.684 71.208 29.012 70.2 25.556L63.576 28.004ZM44.28 56.444C33.264 60.98 20.592 55.796 16.056 44.78C11.52 33.764 16.704 21.092 27.72 16.556C38.736 12.02 51.408 17.204 55.944 28.22C60.552 39.236 55.296 51.908 44.28 56.444Z" fill="#E9C500"/>
</svg>
