<svg width="60" height="67" viewBox="0 0 60 67" fill="none" xmlns="http://www.w3.org/2000/svg">
<path d="M55 5.16699L50 0.166992L45 5.16699L40 0.166992L35 5.16699L30 0.166992L25 5.16699L20 0.166992L15 5.16699L10 0.166992L5 5.16699L0 0.166992V66.8337L5 61.8337L10 66.8337L15 61.8337L20 66.8337L25 61.8337L30 66.8337L35 61.8337L40 66.8337L45 61.8337L50 66.8337L55 61.8337L60 66.8337V0.166992L55 5.16699ZM53.3333 56.8337H6.66667V10.167H53.3333V56.8337ZM10 43.5003H50V50.167H10M10 30.167H50V36.8337H10M10 16.8337H50V23.5003H10V16.8337Z" fill="#E9C500"/>
</svg>
