<svg width="19" height="21" viewBox="0 0 19 21" fill="none" xmlns="http://www.w3.org/2000/svg">
<path d="M17.1477 2.16968L15.6477 0.669678L14.1477 2.16968L12.6477 0.669678L11.1477 2.16968L9.64771 0.669678L8.14771 2.16968L6.64771 0.669678L5.14771 2.16968L3.64771 0.669678L2.14771 2.16968L0.647705 0.669678V20.6697L2.14771 19.1697L3.64771 20.6697L5.14771 19.1697L6.64771 20.6697L8.14771 19.1697L9.64771 20.6697L11.1477 19.1697L12.6477 20.6697L14.1477 19.1697L15.6477 20.6697L17.1477 19.1697L18.6477 20.6697V0.669678L17.1477 2.16968ZM16.6477 17.6697H2.64771V3.66968H16.6477V17.6697ZM3.64771 13.6697H15.6477V15.6697H3.64771M3.64771 9.66968H15.6477V11.6697H3.64771M3.64771 5.66968H15.6477V7.66968H3.64771V5.66968Z" fill="white"/>
</svg>
